<svg width="14" height="14" viewBox="0 0 14 14" fill="none" xmlns="http://www.w3.org/2000/svg">
<path fill-rule="evenodd" clip-rule="evenodd" d="M7.00007 0.714844C7.496 0.714844 7.89803 1.11687 7.89803 1.6128V6.1026H12.3878C12.8838 6.1026 13.2858 6.50463 13.2858 7.00056C13.2858 7.49649 12.8838 7.89852 12.3878 7.89852H7.89803V12.3883C7.89803 12.8842 7.496 13.2863 7.00007 13.2863C6.50414 13.2863 6.10211 12.8842 6.10211 12.3883V7.89852L1.61231 7.89852C1.11639 7.89852 0.714355 7.49649 0.714355 7.00056C0.714356 6.50463 1.11639 6.1026 1.61231 6.1026L6.10211 6.1026V1.6128C6.10211 1.11687 6.50414 0.714844 7.00007 0.714844Z" fill="#01A1B7"/>
</svg>
