<svg width="10" height="18" viewBox="0 0 10 18" fill="none" xmlns="http://www.w3.org/2000/svg">
<path d="M1.71248 17.75C1.89922 17.7506 2.08373 17.7094 2.25246 17.6294C2.42118 17.5493 2.56983 17.4325 2.68748 17.2875L8.72498 9.78748C8.90883 9.56381 9.00934 9.28326 9.00934 8.99373C9.00934 8.7042 8.90883 8.42364 8.72498 8.19998L2.47498 0.699979C2.2628 0.444708 1.95792 0.284177 1.62738 0.253702C1.29685 0.223228 0.96775 0.325305 0.712479 0.537478C0.457208 0.749652 0.296678 1.05454 0.266203 1.38507C0.235728 1.71561 0.337805 2.04471 0.549978 2.29998L6.13748 8.99998L0.737479 15.7C0.584625 15.8835 0.487529 16.1069 0.45768 16.3438C0.42783 16.5808 0.466476 16.8213 0.569046 17.0369C0.671616 17.2526 0.833816 17.4344 1.03645 17.5607C1.23909 17.6871 1.47369 17.7528 1.71248 17.75Z" fill="#707070"/>
</svg>
