<svg width="392" height="236" viewBox="0 0 392 236" fill="none" xmlns="http://www.w3.org/2000/svg">
<g clip-path="url(#clip0_732_5678)">
<ellipse cx="206.677" cy="149.882" rx="76.7342" ry="76.9185" fill="#EDFFFA"/>
<path d="M270.06 182.691C271.25 183.382 272.778 182.981 273.435 181.772C280.864 168.097 284.306 152.595 283.341 137.033C282.325 120.641 276.465 104.919 266.504 91.8533C256.543 78.7881 242.926 68.9671 227.377 63.6321C212.615 58.5672 196.74 57.7618 181.569 61.2819C180.228 61.593 179.435 62.9607 179.787 64.2914C180.138 65.6211 181.5 66.4102 182.84 66.1018C197.058 62.8311 211.927 63.599 225.757 68.3442C240.373 73.359 253.173 82.5908 262.536 94.8721C271.9 107.153 277.408 121.933 278.363 137.341C279.267 151.918 276.058 166.439 269.125 179.26C268.47 180.472 268.869 181.998 270.06 182.691Z" fill="#00C98D"/>
<path d="M135.884 190.508C134.781 191.334 134.556 192.901 135.416 193.977C148.235 210.017 166.573 220.77 186.906 224.106C207.239 227.441 228.057 223.11 245.338 212.007C246.497 211.263 246.784 209.706 246.004 208.571C245.225 207.438 243.677 207.153 242.518 207.895C226.298 218.273 206.779 222.317 187.714 219.189C168.649 216.062 151.45 205.996 139.404 190.981C138.543 189.908 136.985 189.683 135.884 190.508Z" fill="#00C98D"/>
<path d="M167.297 68.7077C166.732 67.4537 165.256 66.891 164.019 67.492C150.252 74.1804 138.585 84.5456 130.326 97.4599C122.067 110.373 117.555 125.302 117.265 140.59C117.239 141.966 118.371 143.071 119.749 143.056C121.126 143.041 122.226 141.911 122.255 140.534C122.554 126.216 126.793 112.238 134.529 100.142C142.265 88.0459 153.182 78.3287 166.063 72.0395C167.3 71.4355 167.862 69.9631 167.297 68.7077Z" fill="#00C98D"/>
<path d="M253.206 203.017C254.108 204.056 255.683 204.17 256.695 203.239C260.169 200.042 263.364 196.555 266.245 192.817C267.086 191.725 266.832 190.163 265.715 189.356C264.6 188.551 263.046 188.804 262.204 189.892C259.551 193.323 256.616 196.526 253.43 199.47C252.418 200.404 252.303 201.977 253.206 203.017Z" fill="#00C98D"/>
<path d="M166.868 138.051L190.784 161.628L235.118 117.924" stroke="#00C98D" strokeWidth="8" stroke-linecap="round" stroke-linejoin="round"/>
<path d="M97.7049 47.9356C97.7049 51.7558 94.6052 54.8527 90.7815 54.8527C86.9578 54.8527 83.8581 51.7558 83.8581 47.9356C83.8581 44.1154 86.9578 41.0186 90.7815 41.0186C94.6052 41.0186 97.7049 44.1154 97.7049 47.9356ZM88.6485 47.9356C88.6485 49.1126 89.6034 50.0667 90.7815 50.0667C91.9595 50.0667 92.9145 49.1126 92.9145 47.9356C92.9145 46.7587 91.9595 45.8046 90.7815 45.8046C89.6034 45.8046 88.6485 46.7587 88.6485 47.9356Z" fill="#FFCC2A"/>
<path d="M346.103 136.855C346.103 141.312 342.487 144.925 338.026 144.925C333.565 144.925 329.948 141.312 329.948 136.855C329.948 132.398 333.565 128.785 338.026 128.785C342.487 128.785 346.103 132.398 346.103 136.855ZM334.483 136.855C334.483 138.81 336.069 140.394 338.026 140.394C339.982 140.394 341.568 138.81 341.568 136.855C341.568 134.9 339.982 133.316 338.026 133.316C336.069 133.316 334.483 134.9 334.483 136.855Z" fill="#00C98D"/>
<path d="M275.715 16.1399C275.715 17.4133 276.763 18.4739 277.997 18.1593C279.087 17.8816 280.123 17.4056 281.051 16.7487C282.611 15.6448 283.789 14.0843 284.424 12.2826C285.058 10.481 285.117 8.52703 284.592 6.69059C284.067 4.85416 282.984 3.22579 281.494 2.03032C280.003 0.834852 278.177 0.131238 276.269 0.0166231C274.361 -0.0979914 272.464 0.382047 270.841 1.39046C269.218 2.39888 267.948 3.88593 267.206 5.64632C266.766 6.6929 266.525 7.80539 266.489 8.92733C266.448 10.2008 267.711 10.995 268.955 10.7195C270.2 10.4439 270.927 9.16134 271.283 7.93712C271.332 7.76693 271.392 7.59911 271.461 7.43455C271.832 6.55436 272.467 5.81083 273.278 5.30662C274.09 4.80241 275.038 4.56239 275.992 4.6197C276.946 4.67701 277.859 5.02882 278.604 5.62655C279.35 6.22429 279.891 7.03847 280.154 7.95669C280.416 8.8749 280.387 9.85187 280.069 10.7527C279.752 11.6535 279.163 12.4338 278.383 12.9858C278.236 13.0899 278.084 13.1849 277.926 13.2706C276.808 13.8802 275.715 14.8665 275.715 16.1399Z" fill="#FFCC2A"/>
<path d="M370.22 52.3686C368.886 52.2644 367.695 53.27 367.858 54.5981C368.114 56.6804 368.909 58.6752 370.184 60.3769C371.947 62.73 374.507 64.3619 377.385 64.9681C380.264 65.5743 383.265 65.1134 385.828 63.6713C388.392 62.2292 390.343 59.9045 391.317 57.131C392.291 54.3576 392.221 51.3248 391.122 48.5986C390.022 45.8724 387.967 43.6392 385.34 42.3155C382.714 40.9919 379.695 40.6683 376.847 41.4051C374.787 41.9379 372.919 42.9988 371.417 44.4646C370.459 45.3996 370.761 46.9299 371.869 47.6818C372.975 48.4329 374.466 48.1004 375.538 47.3015C376.287 46.7434 377.142 46.3303 378.062 46.0924C379.77 45.6503 381.582 45.8445 383.158 46.6387C384.734 47.4329 385.967 48.7728 386.627 50.4085C387.286 52.0442 387.328 53.8639 386.744 55.528C386.159 57.1921 384.989 58.5869 383.451 59.4521C381.913 60.3174 380.112 60.594 378.385 60.2302C376.658 59.8665 375.122 58.8874 374.064 57.4755C373.496 56.7172 373.087 55.8619 372.851 54.9601C372.512 53.6653 371.555 52.4728 370.22 52.3686Z" fill="#FFCC2A"/>
<path d="M17.3476 104.535C17.694 103.244 16.9237 101.89 15.589 101.808C13.6267 101.686 11.6515 102.043 9.8386 102.864C7.28537 104.019 5.21226 106.024 3.97248 108.536C2.73271 111.047 2.40299 113.911 3.0395 116.638C3.67602 119.366 5.23938 121.788 7.46322 123.493C9.68705 125.198 12.4338 126.079 15.2354 125.988C18.0369 125.896 20.72 124.837 22.8275 122.99C24.935 121.144 26.3364 118.624 26.793 115.861C27.1172 113.899 26.9509 111.901 26.3255 110.039C25.9 108.772 24.3931 108.378 23.2348 109.047C22.0751 109.715 21.7248 111.204 21.9777 112.518C22.1388 113.355 22.1524 114.219 22.0114 115.073C21.7374 116.73 20.8966 118.242 19.6321 119.35C18.3676 120.458 16.7577 121.094 15.0768 121.148C13.3958 121.203 11.7478 120.674 10.4135 119.652C9.0792 118.629 8.14118 117.175 7.75928 115.539C7.37737 113.902 7.5752 112.184 8.31906 110.677C9.06293 109.17 10.3068 107.967 11.8387 107.274C12.6283 106.916 13.4692 106.706 14.3211 106.645C15.6551 106.55 17.0012 105.827 17.3476 104.535Z" fill="#00C98D"/>
<line x1="66.6406" y1="157.709" x2="80.111" y2="157.709" stroke="#FFCC2A" stroke-width="4" stroke-linecap="round"/>
<line x1="73.1229" y1="164.691" x2="73.1229" y2="151.236" stroke="#FFCC2A" stroke-width="4" stroke-linecap="round"/>
<line x1="310.178" y1="230.389" x2="319.717" y2="230.389" stroke="#FFCC2A" stroke-width="2" stroke-linecap="round"/>
<line x1="315.102" y1="235" x2="315.102" y2="225.472" stroke="#FFCC2A" stroke-width="2" stroke-linecap="round"/>
<ellipse cx="356.488" cy="192.191" rx="2.3078" ry="2.30569" fill="#00C98D"/>
</g>
<defs>
<clipPath id="clip0_732_5678">
<rect width="392" height="236" fill="white"/>
</clipPath>
</defs>
</svg>
