<svg width="16" height="16" viewBox="0 0 16 16" fill="none" xmlns="http://www.w3.org/2000/svg">
<path fill-rule="evenodd" clip-rule="evenodd" d="M2.16667 12.1667C2.16667 13.0871 2.91286 13.8333 3.83333 13.8333L12.1667 13.8333C13.0871 13.8333 13.8333 13.0871 13.8333 12.1667L13.8333 11.3333C13.8333 10.8731 14.2064 10.5 14.6667 10.5C15.1269 10.5 15.5 10.8731 15.5 11.3333L15.5 12.1667C15.5 14.0076 14.0076 15.5 12.1667 15.5L3.83333 15.5C1.99238 15.5 0.5 14.0076 0.5 12.1667L0.5 11.3333C0.5 10.8731 0.873096 10.5 1.33333 10.5C1.79357 10.5 2.16667 10.8731 2.16667 11.3333L2.16667 12.1667ZM4.07741 7.41074C4.40285 7.08531 4.93049 7.08531 5.25592 7.41074L7.16667 9.32149L7.16667 1.33333C7.16667 0.873097 7.53976 0.5 8 0.5C8.46024 0.5 8.83333 0.873096 8.83333 1.33333L8.83333 9.32149L10.7441 7.41074C11.0695 7.08531 11.5972 7.08531 11.9226 7.41074C12.248 7.73618 12.248 8.26382 11.9226 8.58926L8.58926 11.9226C8.26382 12.248 7.73618 12.248 7.41074 11.9226L4.07741 8.58926C3.75197 8.26382 3.75197 7.73618 4.07741 7.41074Z" fill="#002B48"/>
</svg>
