<svg width="24" height="22" viewBox="0 0 24 22" fill="none" xmlns="http://www.w3.org/2000/svg">
<path d="M20.666 14.9994C20.3403 14.6737 19.9254 14.4516 19.4737 14.3613L16.6882 13.8042C15.1618 13.4989 13.5772 13.7111 12.1849 14.4073L11.8146 14.5924C10.4223 15.2886 8.83772 15.5008 7.31132 15.1955L5.05761 14.7447C4.29261 14.5917 3.50175 14.8312 2.95009 15.3828M7.3331 1.6665H16.6664L15.4998 2.83317V8.86667C15.4998 9.48551 15.7456 10.079 16.1832 10.5166L22.0165 16.3499C23.4864 17.8198 22.4454 20.3332 20.3666 20.3332H3.63293C1.55415 20.3332 0.513099 17.8198 1.98302 16.3499L7.81635 10.5166C8.25394 10.079 8.49977 9.48551 8.49977 8.86667V2.83317L7.3331 1.6665Z" stroke="#002B48" stroke-width="2" stroke-linecap="round" stroke-linejoin="round"/>
</svg>
