<svg width="20" height="20" viewBox="0 0 20 20" fill="none" xmlns="http://www.w3.org/2000/svg">
    <path d="M10.2199 3.81992V1.79761L14.2645 5.84223H12.2422C10.8221 5.84223 10.2199 5.24003 10.2199 3.81992ZM10.2109 16.9425C10.2252 16.9829 10.2296 17.0262 10.2238 17.0688C10.218 17.1113 10.2022 17.1518 10.1776 17.187C10.1529 17.2222 10.1203 17.2509 10.0823 17.2709C10.0443 17.2909 10.0021 17.3016 9.95921 17.302H4.15293C3.78666 17.3543 3.41326 17.3205 3.06228 17.2035C2.7113 17.0865 2.39238 16.8894 2.13077 16.6277C1.86915 16.3661 1.67203 16.0472 1.555 15.6962C1.43798 15.3453 1.40426 14.9718 1.45652 14.6056V3.81992C1.40426 3.45366 1.43798 3.08025 1.555 2.72927C1.67203 2.37829 1.86915 2.05937 2.13077 1.79776C2.39238 1.53615 2.7113 1.33902 3.06228 1.222C3.41326 1.10497 3.78666 1.07125 4.15293 1.12351H8.87166V3.81992C8.81852 4.27538 8.86915 4.73696 9.01975 5.17008C9.17034 5.60319 9.417 5.99661 9.74125 6.32085C10.0655 6.64509 10.4589 6.89175 10.892 7.04235C11.3251 7.19295 11.7867 7.24358 12.2422 7.19044H14.9386V10.3003C14.9373 10.3699 14.9097 10.4364 14.8613 10.4864C14.813 10.5365 14.7474 10.5663 14.6779 10.5699C13.4152 10.6397 12.2268 11.1895 11.3562 12.1069C10.4857 13.0242 9.99874 14.2397 9.99516 15.5044C9.99234 15.992 10.0651 16.4771 10.2109 16.9425ZM9.32106 12.808C9.32106 12.6292 9.25004 12.4577 9.12362 12.3313C8.9972 12.2049 8.82574 12.1339 8.64695 12.1339H5.05173C4.87295 12.1339 4.70149 12.2049 4.57507 12.3313C4.44865 12.4577 4.37763 12.6292 4.37763 12.808C4.37763 12.9868 4.44865 13.1582 4.57507 13.2846C4.70149 13.4111 4.87295 13.4821 5.05173 13.4821H8.64695C8.82574 13.4821 8.9972 13.4111 9.12362 13.2846C9.25004 13.1582 9.32106 12.9868 9.32106 12.808ZM11.3434 9.88686C11.5222 9.88686 11.6936 9.81583 11.82 9.68941C11.9465 9.563 12.0175 9.39154 12.0175 9.21275C12.0175 9.03397 11.9465 8.86251 11.82 8.73609C11.6936 8.60967 11.5222 8.53865 11.3434 8.53865H5.05173C4.87295 8.53865 4.70149 8.60967 4.57507 8.73609C4.44865 8.86251 4.37763 9.03397 4.37763 9.21275C4.37763 9.39154 4.44865 9.563 4.57507 9.68941C4.70149 9.81583 4.87295 9.88686 5.05173 9.88686H11.3434ZM18.5338 15.5044C18.5338 16.2155 18.323 16.9106 17.9279 17.5018C17.5329 18.093 16.9714 18.5538 16.3144 18.8259C15.6575 19.0981 14.9346 19.1692 14.2372 19.0305C13.5398 18.8918 12.8992 18.5494 12.3964 18.0466C11.8936 17.5438 11.5512 16.9032 11.4125 16.2058C11.2737 15.5084 11.3449 14.7855 11.617 14.1286C11.8892 13.4716 12.35 12.9101 12.9412 12.5151C13.5324 12.12 14.2275 11.9092 14.9386 11.9092C15.8921 11.9092 16.8066 12.2879 17.4808 12.9622C18.155 13.6364 18.5338 14.5509 18.5338 15.5044ZM16.5115 15.5044C16.5115 15.3852 16.4642 15.2709 16.3799 15.1866C16.2956 15.1023 16.1813 15.055 16.0621 15.055H13.8151C13.6959 15.055 13.5816 15.1023 13.4973 15.1866C13.413 15.2709 13.3657 15.3852 13.3657 15.5044C13.3657 15.6236 13.413 15.7379 13.4973 15.8222C13.5816 15.9064 13.6959 15.9538 13.8151 15.9538H16.0621C16.1813 15.9538 16.2956 15.9064 16.3799 15.8222C16.4642 15.7379 16.5115 15.6236 16.5115 15.5044Z" fill="black"/>
</svg>
