<svg width="20" height="20" viewBox="0 0 20 20" fill="none" xmlns="http://www.w3.org/2000/svg">
<path fill-rule="evenodd" clip-rule="evenodd" d="M2.92653 10.0001C3.95629 12.914 6.73556 15.0002 10 15.0002C13.2645 15.0002 16.0437 12.914 17.0735 10.0002C16.0437 7.08637 13.2645 5.00016 10 5.00016C6.73556 5.00016 3.95631 7.08635 2.92653 10.0001ZM1.25314 9.75042C2.42098 6.03218 5.89425 3.3335 10 3.3335C14.1058 3.3335 17.5791 6.03221 18.7469 9.75049C18.7979 9.91305 18.7979 10.0873 18.7469 10.2499C17.579 13.9681 14.1058 16.6668 10 16.6668C5.89424 16.6668 2.42096 13.9681 1.25314 10.2498C1.20208 10.0873 1.20208 9.91298 1.25314 9.75042ZM9.99963 8.3335C9.07916 8.3335 8.33297 9.07969 8.33297 10.0002C8.33297 10.9206 9.07916 11.6668 9.99963 11.6668C10.9201 11.6668 11.6663 10.9206 11.6663 10.0002C11.6663 9.07969 10.9201 8.3335 9.99963 8.3335ZM6.6663 10.0002C6.6663 8.15921 8.15869 6.66683 9.99963 6.66683C11.8406 6.66683 13.333 8.15921 13.333 10.0002C13.333 11.8411 11.8406 13.3335 9.99963 13.3335C8.15869 13.3335 6.6663 11.8411 6.6663 10.0002Z" fill="#002B48"/>
</svg>
