<svg width="20" height="20" viewBox="0 0 22 22" fill="none" xmlns="http://www.w3.org/2000/svg">
<path fill-rule="evenodd" clip-rule="evenodd" d="M3.21928 10.9998C4.35202 14.205 7.40921 16.4998 11.0001 16.4998C14.591 16.4998 17.6482 14.205 18.7809 10.9999C17.6482 7.79467 14.591 5.49984 11.0001 5.49984C7.40921 5.49984 4.35203 7.79464 3.21928 10.9998ZM1.37855 10.7251C2.66318 6.63506 6.48377 3.6665 11.0001 3.6665C15.5164 3.6665 19.3371 6.63509 20.6217 10.7252C20.6778 10.904 20.6778 11.0957 20.6217 11.2746C19.337 15.3646 15.5164 18.3332 11.0001 18.3332C6.48376 18.3332 2.66316 15.3646 1.37855 11.2745C1.32238 11.0957 1.32239 10.9039 1.37855 10.7251ZM10.9997 9.1665C9.98717 9.1665 9.16636 9.98732 9.16636 10.9998C9.16636 12.0124 9.98717 12.8332 10.9997 12.8332C12.0122 12.8332 12.833 12.0124 12.833 10.9998C12.833 9.98732 12.0122 9.1665 10.9997 9.1665ZM7.33303 10.9998C7.33303 8.97479 8.97465 7.33317 10.9997 7.33317C13.0247 7.33317 14.6664 8.97479 14.6664 10.9998C14.6664 13.0249 13.0247 14.6665 10.9997 14.6665C8.97465 14.6665 7.33303 13.0249 7.33303 10.9998Z" fill="#002B48"/>
<line x1="1.53711" y1="18.4099" x2="20.4533" y2="3.57156" stroke="#002B48" stroke-width="1.5"/>
</svg>
