<svg width="45" height="60" viewBox="0 0 45 60" fill="none" xmlns="http://www.w3.org/2000/svg">
<g opacity="0.3">
<path opacity="0.3" d="M37.7109 13.8445C36.2348 13.843 34.8195 13.2451 33.7757 12.182C32.7319 11.119 32.1449 9.67756 32.1435 8.17416V0.30127H7.26569C5.33871 0.30127 3.49066 1.08093 2.12808 2.46868C0.765496 3.85644 0 5.7386 0 7.70119V52.3098C0.00286156 54.2705 0.769613 56.1499 2.13189 57.5353C3.49416 58.9207 5.34058 59.6988 7.26569 59.6988H37.1304C39.0555 59.6988 40.9019 58.9207 42.2642 57.5353C43.6265 56.1499 44.3932 54.2705 44.3961 52.3098V13.8445H37.7109Z" fill="#00C98D"/>
</g>
<path d="M44.3962 13.8445H37.711C36.2348 13.843 34.8196 13.2451 33.7758 12.182C32.732 11.119 32.145 9.67756 32.1436 8.17416V0.30127L44.3962 13.8445Z" fill="#00C98D"/>
<path d="M35.2618 41.7804H7.38701C7.11848 41.7804 6.86094 41.6717 6.67106 41.4783C6.48118 41.2849 6.37451 41.0227 6.37451 40.7492C6.37523 40.4761 6.48221 40.2145 6.67202 40.0217C6.86182 39.8289 7.11895 39.7207 7.38701 39.7207H35.2618C35.5296 39.7207 35.7865 39.829 35.9758 40.0219C36.1652 40.2147 36.2716 40.4764 36.2716 40.7492C36.272 40.8844 36.2461 41.0185 36.1955 41.1436C36.1449 41.2687 36.0706 41.3823 35.9768 41.4781C35.883 41.5739 35.7716 41.65 35.6489 41.7018C35.5262 41.7537 35.3946 41.7804 35.2618 41.7804Z" fill="#00C98D"/>
<path d="M35.2618 30.1651H7.38701C7.11895 30.1651 6.86182 30.0568 6.67202 29.864C6.48221 29.6712 6.37523 29.4097 6.37451 29.1367C6.37451 28.8632 6.48118 28.6008 6.67106 28.4074C6.86094 28.2141 7.11848 28.1055 7.38701 28.1055H35.2618C35.3946 28.1055 35.5262 28.1322 35.6489 28.184C35.7716 28.2359 35.883 28.3119 35.9768 28.4076C36.0706 28.5034 36.1449 28.6172 36.1955 28.7423C36.2461 28.8673 36.272 29.0014 36.2716 29.1367C36.2716 29.4094 36.1652 29.671 35.9758 29.8639C35.7865 30.0568 35.5296 30.1651 35.2618 30.1651Z" fill="#00C98D"/>
<path d="M35.2618 35.9727H7.38701C7.11848 35.9727 6.86094 35.8641 6.67106 35.6707C6.48118 35.4773 6.37451 35.215 6.37451 34.9415C6.37523 34.6685 6.48221 34.4069 6.67202 34.2141C6.86182 34.0213 7.11895 33.9131 7.38701 33.9131H35.2618C35.5296 33.9131 35.7865 34.0215 35.9758 34.2143C36.1652 34.4072 36.2716 34.6688 36.2716 34.9415C36.272 35.0768 36.2461 35.2109 36.1955 35.336C36.1449 35.4611 36.0706 35.5748 35.9768 35.6706C35.883 35.7664 35.7716 35.8423 35.6489 35.8942C35.5262 35.9461 35.3946 35.9727 35.2618 35.9727Z" fill="#00C98D"/>
<path d="M24.2674 24.357H7.38701C7.11895 24.357 6.86182 24.2488 6.67202 24.056C6.48221 23.8632 6.37523 23.6016 6.37451 23.3286C6.37451 23.0551 6.48118 22.7928 6.67106 22.5994C6.86094 22.406 7.11848 22.2974 7.38701 22.2974H24.2674C24.5355 22.2981 24.7923 22.407 24.9816 22.6003C25.1709 22.7937 25.2772 23.0556 25.2772 23.3286C25.2765 23.6011 25.1699 23.8623 24.9807 24.055C24.7914 24.2477 24.535 24.3563 24.2674 24.357Z" fill="#00C98D"/>
<path d="M24.2674 18.5494H7.38701C7.11895 18.5494 6.86182 18.4411 6.67202 18.2483C6.48221 18.0555 6.37523 17.794 6.37451 17.521C6.37451 17.2475 6.48118 16.9851 6.67106 16.7917C6.86094 16.5983 7.11848 16.4897 7.38701 16.4897H24.2674C24.5355 16.4905 24.7923 16.5994 24.9816 16.7927C25.1709 16.986 25.2772 17.2479 25.2772 17.521C25.2765 17.7935 25.1699 18.0546 24.9807 18.2474C24.7914 18.4401 24.535 18.5487 24.2674 18.5494Z" fill="#00C98D"/>
<path d="M34.768 16.4897H29.9944C29.1623 16.4897 28.4878 17.1767 28.4878 18.0242V22.886C28.4878 23.7334 29.1623 24.4204 29.9944 24.4204H34.768C35.6001 24.4204 36.2746 23.7334 36.2746 22.886V18.0242C36.2746 17.1767 35.6001 16.4897 34.768 16.4897Z" fill="#00C98D"/>
</svg>
