<svg width="18" height="18" viewBox="0 0 18 18" fill="none" xmlns="http://www.w3.org/2000/svg">
<path fill-rule="evenodd" clip-rule="evenodd" d="M0.666748 2.33335C0.666748 1.41288 1.41294 0.666687 2.33341 0.666687H15.6667C16.5872 0.666687 17.3334 1.41288 17.3334 2.33335V4.48818C17.3334 4.9302 17.1578 5.35413 16.8453 5.66669L11.5001 11.0119L11.5001 13.1667C11.5001 13.3877 11.4123 13.5997 11.256 13.7559L7.92267 17.0893C7.68434 17.3276 7.32591 17.3989 7.01451 17.2699C6.70312 17.1409 6.50008 16.8371 6.50008 16.5V11.0119L1.1549 5.66669C0.842342 5.35413 0.666748 4.9302 0.666748 4.48818V2.33335ZM15.6667 2.33335H2.33341V4.48818L7.67859 9.83335C7.99115 10.1459 8.16675 10.5698 8.16675 11.0119V14.4882L9.83342 12.8215V11.0119C9.83342 10.5698 10.009 10.1459 10.3216 9.83335L15.6667 4.48818V2.33335Z" fill="#002B48"/>
</svg>
