<svg width="20" height="17" viewBox="0 0 20 17" fill="none" xmlns="http://www.w3.org/2000/svg">
<path fill-rule="evenodd" clip-rule="evenodd" d="M7 0C7.55228 0 8 0.447715 8 1V2H9V1C9 0.447715 9.44771 0 10 0C10.5523 0 11 0.447715 11 1V2H12V1C12 0.447715 12.4477 0 13 0C13.5523 0 14 0.447715 14 1V2C15.6569 2 17 3.34315 17 5V6C18.6569 6 20 7.34315 20 9V16C20 16.5523 19.5523 17 19 17H1C0.447715 17 0 16.5523 0 16V9C0 7.34315 1.34315 6 3 6V5C3 3.34315 4.34315 2 6 2V1C6 0.447715 6.44772 0 7 0ZM6 4C5.44772 4 5 4.44772 5 5V6H15V5C15 4.44772 14.5523 4 14 4H6ZM3 8C2.44772 8 2 8.44772 2 9V9.68325C2.36868 9.78657 2.72499 9.94814 3.0547 10.168C3.62713 10.5496 4.37287 10.5496 4.9453 10.168C6.18953 9.33847 7.81047 9.33847 9.0547 10.168C9.62713 10.5496 10.3729 10.5496 10.9453 10.168C12.1895 9.33847 13.8105 9.33847 15.0547 10.168C15.6271 10.5496 16.3729 10.5496 16.9453 10.168C17.275 9.94814 17.6313 9.78657 18 9.68325V9C18 8.44772 17.5523 8 17 8H3ZM18 11.8678C16.7633 12.6614 15.1714 12.6494 13.9453 11.8321C13.3729 11.4504 12.6271 11.4504 12.0547 11.8321C10.8105 12.6615 9.18953 12.6615 7.9453 11.8321C7.37287 11.4504 6.62713 11.4504 6.0547 11.8321C4.82863 12.6494 3.23675 12.6614 2 11.8678V15H18V11.8678Z" fill="#002B48"/>
</svg>
