<svg width="28" height="38" viewBox="0 0 28 38" fill="none" xmlns="http://www.w3.org/2000/svg">
    <path fill-rule="evenodd" clip-rule="evenodd" d="M17.499 2.375C17.1896 2.375 16.8928 2.24989 16.674 2.02719C16.4552 1.80449 16.3322 1.50244 16.3322 1.1875C16.3322 0.872555 16.4552 0.57051 16.674 0.347811C16.8928 0.125111 17.1896 0 17.499 0L26.8332 0C27.1427 0 27.4394 0.125111 27.6583 0.347811C27.8771 0.57051 28 0.872555 28 1.1875V10.6875C28 11.0024 27.8771 11.3045 27.6583 11.5272C27.4394 11.7499 27.1427 11.875 26.8332 11.875C26.5238 11.875 26.227 11.7499 26.0082 11.5272C25.7894 11.3045 25.6664 11.0024 25.6664 10.6875V4.05412L17.6157 12.2479C18.3094 13.6066 18.6701 15.1159 18.6671 16.6471C18.6641 18.1783 18.2975 19.686 17.5984 21.0419C16.8994 22.3978 15.8888 23.5617 14.6525 24.4343C13.4163 25.307 11.9911 25.8626 10.4984 26.0538V30.875H13.9987C14.3081 30.875 14.6049 31.0001 14.8237 31.2228C15.0425 31.4455 15.1655 31.7476 15.1655 32.0625C15.1655 32.3774 15.0425 32.6795 14.8237 32.9022C14.6049 33.1249 14.3081 33.25 13.9987 33.25H10.4984V36.8125C10.4984 37.1274 10.3754 37.4295 10.1566 37.6522C9.93782 37.8749 9.64104 38 9.3316 38C9.02215 38 8.72537 37.8749 8.50656 37.6522C8.28775 37.4295 8.16482 37.1274 8.16482 36.8125V33.25H4.66449C4.35505 33.25 4.05827 33.1249 3.83946 32.9022C3.62065 32.6795 3.49772 32.3774 3.49772 32.0625C3.49772 31.7476 3.62065 31.4455 3.83946 31.2228C4.05827 31.0001 4.35505 30.875 4.66449 30.875H8.16482V26.0538C6.67098 25.8618 5.24494 25.3048 4.00838 24.4305C2.77182 23.5561 1.76144 22.3902 1.06346 21.0324C0.365485 19.6745 0.000620492 18.165 7.90716e-07 16.6325C-0.000618911 15.1001 0.363025 13.5902 1.05991 12.2318C1.75679 10.8733 2.76622 9.70661 4.00207 8.8312C5.23792 7.95579 6.66351 7.39766 8.1572 7.20442C9.65089 7.01119 11.1683 7.18859 12.5801 7.72148C13.9918 8.25438 15.2559 9.12695 16.2646 10.2648L24.0166 2.375H17.499ZM15.1725 12.6968C14.1485 11.1201 12.5511 10.0221 10.7317 9.64417C8.91225 9.26625 7.01983 9.63941 5.47074 10.6816C3.92164 11.7237 2.84276 13.3495 2.47143 15.2012C2.10011 17.053 2.46676 18.979 3.49072 20.5556C4.51499 22.1322 6.11269 23.2302 7.93234 23.6079C9.75198 23.9856 11.6445 23.6121 13.1936 22.5696C14.7427 21.5272 15.8215 19.9011 16.1926 18.0491C16.5637 16.1971 16.1967 14.271 15.1725 12.6944V12.6968Z" fill="#7B7B7B"/>
</svg>
