<svg width="22" height="22" viewBox="0 0 22 22" fill="none" xmlns="http://www.w3.org/2000/svg">
<path fill-rule="evenodd" clip-rule="evenodd" d="M0.5 2.83333C0.5 1.54467 1.54467 0.5 2.83333 0.5H19.1667C20.4553 0.5 21.5 1.54467 21.5 2.83333V5.16667C21.5 6.45533 20.4553 7.5 19.1667 7.5H2.83333C1.54467 7.5 0.5 6.45533 0.5 5.16667V2.83333ZM19.1667 2.83333H2.83333V5.16667H19.1667V2.83333ZM0.5 12.1667C0.5 10.878 1.54467 9.83333 2.83333 9.83333H9.83333C11.122 9.83333 12.1667 10.878 12.1667 12.1667V19.1667C12.1667 20.4553 11.122 21.5 9.83333 21.5H2.83333C1.54467 21.5 0.5 20.4553 0.5 19.1667V12.1667ZM9.83333 12.1667H2.83333V19.1667H9.83333V12.1667ZM14.5 12.1667C14.5 10.878 15.5447 9.83333 16.8333 9.83333H19.1667C20.4553 9.83333 21.5 10.878 21.5 12.1667V19.1667C21.5 20.4553 20.4553 21.5 19.1667 21.5H16.8333C15.5447 21.5 14.5 20.4553 14.5 19.1667V12.1667ZM19.1667 12.1667H16.8333V19.1667H19.1667V12.1667Z" fill="#002B48"/>
</svg>
