<svg width="20" height="20" viewBox="0 0 20 20" fill="none" xmlns="http://www.w3.org/2000/svg">
    <path fill-rule="evenodd" clip-rule="evenodd" d="M9.96237 5.6041L11.0037 7.16566C11.2372 7.51585 10.9851 7.98552 10.565 7.98552H2.93964C1.86023 7.98552 1 7.11197 1 6.04602V2.93964C1 1.87122 1.86339 1 2.93964 1H8.02315C9.10489 1 9.96237 1.87643 9.96237 2.93964V5.6041ZM3.80151 6.00867H5.46649C5.75063 6.00867 5.99507 5.79018 6.00812 5.50632C6.02213 5.20351 5.7807 4.95398 5.48146 4.95398H3.78682C3.48703 4.95398 3.24615 5.20351 3.26003 5.50645C3.27321 5.79018 3.51752 6.00867 3.80151 6.00867ZM3.80179 4.03154H7.17596C7.4752 4.03154 7.71663 3.78201 7.70262 3.4792C7.68958 3.19534 7.44513 2.97685 7.161 2.97685H3.78682C3.48676 2.97685 3.24561 3.2272 3.26016 3.53015C3.27376 3.8136 3.51793 4.03154 3.80179 4.03154ZM14.8013 6.51775C16.013 6.51775 16.9953 5.53543 16.9953 4.32364C16.9953 3.11198 16.013 2.12967 14.8013 2.12967C13.5895 2.12967 12.6072 3.11198 12.6072 4.32364C12.6072 5.53543 13.5895 6.51775 14.8013 6.51775ZM14.8013 6.51775C13.0843 6.51775 11.6692 7.80878 11.473 9.47266H18.1292C17.933 7.80878 16.5179 6.51775 14.8013 6.51775ZM5.09515 14.0835C2.82387 14.0913 1 15.9664 1 18.2377V18.3533C1 18.7105 1.28949 19 1.64668 19H8.5726C8.92979 19 9.21928 18.7105 9.21928 18.3533V18.193C9.21928 15.9269 7.38512 14.0891 5.12032 14.0835C6.54476 14.0777 7.69754 12.9213 7.69754 11.4957C7.69754 10.0665 6.53903 8.90782 5.10971 8.90782C3.68053 8.90782 2.52188 10.0665 2.52188 11.4957C2.52188 12.9213 3.67486 14.0778 5.09922 14.0835L5.09515 14.0835ZM19 11.0898C19 10.7986 18.7639 10.5625 18.4727 10.5625H8.63097C8.71007 10.8606 8.75237 11.1732 8.75237 11.4955C8.75237 12.3895 8.42813 13.2094 7.89172 13.844C8.92773 14.5088 9.71133 15.534 10.0658 16.7405H17.9453V17.328C17.9453 17.612 18.1637 17.8563 18.447 17.8698C18.7501 17.8842 19 17.6426 19 17.3431V11.0898Z" fill="black"/>
</svg>
