<svg width="20" height="20" viewBox="0 0 20 20" fill="none" xmlns="http://www.w3.org/2000/svg">
    <path fill-rule="evenodd" clip-rule="evenodd" d="M18.2895 16.7543L11.4275 9.89218L3.41029 1.875H2.78374L2.65581 2.20008C2.31815 3.05813 2.17388 3.93572 2.23865 4.73789C2.31247 5.65226 2.65984 6.44389 3.24325 7.02731L9.50189 13.2859L10.3274 12.4604L16.1135 18.9304C16.6891 19.506 17.6798 19.5402 18.2895 18.9304C18.8895 18.3304 18.8895 17.3542 18.2895 16.7543ZM6.60168 11.8364L1.69994 16.7381C1.10002 17.3381 1.10002 18.3143 1.69994 18.9142C2.26985 19.4841 3.25576 19.5344 3.87599 18.9142L8.77776 14.0124L6.60168 11.8364ZM15.2209 7.5693L18.0014 4.78879L18.7268 5.51419L15.1 9.14095C14.6564 9.58464 14.0672 9.84963 13.4411 9.88699C13.2825 9.89646 13.1265 9.93238 12.9781 9.99209L10.6221 7.63613C10.6817 7.48772 10.7177 7.33169 10.7272 7.17306C10.7646 6.54696 11.0296 5.95784 11.4732 5.51415L15.1 1.88735L15.8254 2.61268L13.0448 5.39319L13.7702 6.11855L16.5507 3.33804L17.2761 4.0634L14.4955 6.84395L15.2209 7.5693Z" fill="black"/>
</svg>
