<svg width="20" height="20" viewBox="0 0 20 20" fill="none" xmlns="http://www.w3.org/2000/svg">
    <path fill-rule="evenodd" clip-rule="evenodd" d="M13.2783 1.83838C14.0628 2.62289 14.0628 3.89483 13.2783 4.67934C12.4938 5.46384 11.2219 5.46384 10.4374 4.67934C9.65285 3.89483 9.65285 2.62289 10.4374 1.83838C11.2219 1.05387 12.4938 1.05387 13.2783 1.83838ZM6.69722 17.9275L5.22011 18.2425C4.85958 18.3195 4.48855 18.2285 4.20153 17.9975C3.91449 17.7665 3.75 17.4199 3.75 17.0524C3.75 16.5483 4.0545 16.1038 4.52357 15.9218L7.07527 14.9207L8.41935 8.49418C7.69482 8.96325 7.22576 9.7648 7.19425 10.6469C7.17677 11.0879 6.84774 11.4519 6.4137 11.5149C6.16168 11.55 5.90966 11.4764 5.71364 11.3189C5.51763 11.1579 5.39512 10.9234 5.3811 10.6714C5.25862 8.69372 6.39621 6.82808 8.20934 6.0265L8.45437 5.92148C8.94093 5.70448 9.47996 5.63446 10.005 5.71147L11.5206 5.93547C12.2277 6.04052 12.8647 6.40803 13.3093 6.96807L13.5088 7.22009C13.9113 7.72762 14.6254 7.88515 15.2064 7.59811C15.651 7.37759 16.2005 7.53512 16.456 7.96215C16.729 8.41368 16.582 9.00523 16.1305 9.27828L15.9065 9.41126C14.7619 10.1008 13.3618 10.0798 12.2557 9.39377L11.7726 12.0645L13.0362 13.0306C13.8903 13.6851 14.5169 14.6197 14.7899 15.6628L15.2204 17.2974C15.3044 17.6229 15.2484 17.966 15.0594 18.2425C14.8704 18.519 14.5729 18.701 14.2403 18.7395C14.1913 18.7465 14.1458 18.75 14.1003 18.75C13.5928 18.75 13.1378 18.4175 12.9942 17.917L12.5987 16.5729C12.3852 15.8343 11.8216 15.2463 11.0936 15.0012L10.0365 14.6407L9.68299 15.4703C9.14742 16.7234 8.03083 17.6404 6.69722 17.9275Z" fill="black"/>
</svg>
