<svg width="20" height="20" viewBox="0 0 20 20" fill="none" xmlns="http://www.w3.org/2000/svg">
    <path fill-rule="evenodd" clip-rule="evenodd" d="M10.6 9.4V10.6H12.328L11.446 11.704C11.2729 11.9215 11.053 12.0971 10.8027 12.2178C10.5523 12.3386 10.2779 12.4013 10 12.4013C9.72206 12.4013 9.44769 12.3386 9.19733 12.2178C8.94698 12.0971 8.72707 11.9215 8.554 11.704L6.712 9.4H4C3.52261 9.4 3.06477 9.21036 2.72721 8.87279C2.38964 8.53523 2.2 8.07739 2.2 7.6V2.8C2.2 2.32261 2.38964 1.86477 2.72721 1.52721C3.06477 1.18964 3.52261 1 4 1H16C16.4774 1 16.9352 1.18964 17.2728 1.52721C17.6104 1.86477 17.8 2.32261 17.8 2.8V7.6C17.8 8.07739 17.6104 8.53523 17.2728 8.87279C16.9352 9.21036 16.4774 9.4 16 9.4H10.6ZM5.65 5.8H7.15V4.6H5.65V5.8ZM14.35 4.6H12.85V5.8H14.35V4.6ZM9.25 4.6V5.8H10.75V4.6H9.25ZM4.6 15.4C5.92548 15.4 7 14.3255 7 13C7 11.6745 5.92548 10.6 4.6 10.6C3.27452 10.6 2.2 11.6745 2.2 13C2.2 14.3255 3.27452 15.4 4.6 15.4ZM4.60001 16.6C4.02991 16.5987 3.46826 16.4621 2.9613 16.2013C2.45434 15.9405 2.01656 15.5631 1.68401 15.1C1.23827 15.7093 0.99864 16.445 1.00001 17.2V18.4C1.00001 18.5591 1.06322 18.7117 1.17574 18.8243C1.28826 18.9368 1.44088 19 1.60001 19H7.60001C7.75914 19 7.91175 18.9368 8.02427 18.8243C8.13679 18.7117 8.20001 18.5591 8.20001 18.4V17.2C8.20137 16.445 7.96174 15.7093 7.51601 15.1C7.18345 15.5631 6.74567 15.9405 6.23871 16.2013C5.73175 16.4621 5.1701 16.5987 4.60001 16.6ZM17.0371 16.1951C17.5439 15.9363 17.9822 15.561 18.316 15.1C18.7617 15.7093 19.0014 16.445 19 17.2V18.4C19 18.5591 18.9368 18.7117 18.8243 18.8243C18.7117 18.9368 18.5591 19 18.4 19H12.4C12.2409 19 12.0883 18.9368 11.9757 18.8243C11.8632 18.7117 11.8 18.5591 11.8 18.4V17.2C11.7986 16.445 12.0383 15.7093 12.484 15.1C12.8178 15.561 13.2561 15.9363 13.763 16.1951C14.2698 16.4539 14.8309 16.5889 15.4 16.5889C15.9691 16.5889 16.5302 16.4539 17.0371 16.1951ZM15.4 15.4C16.7255 15.4 17.8 14.3255 17.8 13C17.8 11.6745 16.7255 10.6 15.4 10.6C14.0745 10.6 13 11.6745 13 13C13 14.3255 14.0745 15.4 15.4 15.4Z" fill="black"/>
</svg>
