<svg width="18" height="20" viewBox="0 0 18 20" fill="none" xmlns="http://www.w3.org/2000/svg">
<path fill-rule="evenodd" clip-rule="evenodd" d="M4.41667 5.41683C4.41667 2.88552 6.4687 0.833496 9 0.833496C11.5313 0.833496 13.5833 2.88552 13.5833 5.41683V8.16683H14.5C16.0188 8.16683 17.25 9.39805 17.25 10.9168V16.4168C17.25 17.9356 16.0188 19.1668 14.5 19.1668H3.5C1.98122 19.1668 0.75 17.9356 0.75 16.4168V10.9168C0.75 9.39805 1.98122 8.16683 3.5 8.16683H4.41667V5.41683ZM6.25 8.16683H11.75V5.41683C11.75 3.89805 10.5188 2.66683 9 2.66683C7.48122 2.66683 6.25 3.89805 6.25 5.41683V8.16683ZM3.5 10.0002C2.99374 10.0002 2.58333 10.4106 2.58333 10.9168V16.4168C2.58333 16.9231 2.99374 17.3335 3.5 17.3335H14.5C15.0063 17.3335 15.4167 16.9231 15.4167 16.4168V10.9168C15.4167 10.4106 15.0063 10.0002 14.5 10.0002H3.5ZM9 11.8335C9.50626 11.8335 9.91667 12.2439 9.91667 12.7502V14.5835C9.91667 15.0898 9.50626 15.5002 9 15.5002C8.49374 15.5002 8.08333 15.0898 8.08333 14.5835V12.7502C8.08333 12.2439 8.49374 11.8335 9 11.8335Z" fill="#002B48"/>
</svg>
