<svg width="20" height="20" viewBox="0 0 20 20" fill="none" xmlns="http://www.w3.org/2000/svg">
<path fill-rule="evenodd" clip-rule="evenodd" d="M0.833496 3.5835C0.833496 2.06471 2.06471 0.833496 3.5835 0.833496H6.58947C7.37859 0.833496 8.07918 1.33845 8.32872 2.08708L9.70171 6.20606C9.99023 7.0716 9.59839 8.01758 8.78235 8.4256L7.53885 9.04735C8.35159 10.4669 9.53341 11.6487 10.953 12.4615L11.5747 11.218C11.9827 10.4019 12.9287 10.0101 13.7943 10.2986L17.9132 11.6716C18.6619 11.9211 19.1668 12.6217 19.1668 13.4109V16.4168C19.1668 17.9356 17.9356 19.1668 16.4168 19.1668H15.5002C7.39999 19.1668 0.833496 12.6003 0.833496 4.50016V3.5835ZM3.5835 2.66683C3.07724 2.66683 2.66683 3.07724 2.66683 3.5835V4.50016C2.66683 11.5878 8.41251 17.3335 15.5002 17.3335H16.4168C16.9231 17.3335 17.3335 16.9231 17.3335 16.4168V13.4109L13.2145 12.0379L12.1799 14.107C11.9599 14.5471 11.4318 14.7349 10.9833 14.5327C8.53847 13.4305 6.56987 11.4619 5.46759 9.01705C5.26538 8.56856 5.45327 8.04041 5.89331 7.82039L7.96246 6.78582L6.58947 2.66683H3.5835Z" fill="#002B48"/>
</svg>
