<svg width="20" height="18" viewBox="0 0 20 18" fill="none" xmlns="http://www.w3.org/2000/svg">
<path fill-rule="evenodd" clip-rule="evenodd" d="M7.25016 3.5835C7.25016 2.06471 8.48138 0.833496 10.0002 0.833496C11.5189 0.833496 12.7502 2.06471 12.7502 3.5835H16.4168C17.9356 3.5835 19.1668 4.81471 19.1668 6.3335V14.5835C19.1668 16.1023 17.9356 17.3335 16.4168 17.3335H3.5835C2.06471 17.3335 0.833496 16.1023 0.833496 14.5835V6.3335C0.833496 4.81471 2.06471 3.5835 3.5835 3.5835H7.25016ZM7.40664 5.41683H3.5835C3.07724 5.41683 2.66683 5.82724 2.66683 6.3335V14.5835C2.66683 15.0898 3.07724 15.5002 3.5835 15.5002H16.4168C16.9231 15.5002 17.3335 15.0898 17.3335 14.5835V6.3335C17.3335 5.82723 16.9231 5.41683 16.4168 5.41683H12.5937C12.2162 6.48492 11.1975 7.25016 10.0002 7.25016C8.8028 7.25016 7.78416 6.48492 7.40664 5.41683ZM10.0002 2.66683C9.4939 2.66683 9.0835 3.07724 9.0835 3.5835V4.50016C9.0835 5.00642 9.4939 5.41683 10.0002 5.41683C10.5064 5.41683 10.9168 5.00642 10.9168 4.50016V3.5835C10.9168 3.07724 10.5064 2.66683 10.0002 2.66683ZM7.25016 9.0835C6.7439 9.0835 6.3335 9.4939 6.3335 10.0002C6.3335 10.5064 6.7439 10.9168 7.25016 10.9168C7.75642 10.9168 8.16683 10.5064 8.16683 10.0002C8.16683 9.4939 7.75642 9.0835 7.25016 9.0835ZM9.45036 11.6502C9.79559 11.1906 10.0002 10.6192 10.0002 10.0002C10.0002 8.48138 8.76895 7.25016 7.25016 7.25016C5.73138 7.25016 4.50016 8.48138 4.50016 10.0002C4.50016 10.6192 4.70473 11.1905 5.04994 11.6501C4.47752 12.0803 4.03527 12.674 3.79233 13.3614C3.62362 13.8387 3.8738 14.3624 4.35112 14.5311C4.82844 14.6998 5.35216 14.4496 5.52087 13.9723C5.77297 13.259 6.45333 12.7502 7.25016 12.7502C8.04696 12.7502 8.72724 13.259 8.97937 13.9723C9.14807 14.4496 9.67179 14.6998 10.1491 14.5311C10.6264 14.3624 10.8766 13.8387 10.7079 13.3614C10.465 12.674 10.0228 12.0803 9.45036 11.6502ZM11.8335 9.0835C11.8335 8.57724 12.2439 8.16683 12.7502 8.16683H15.5002C16.0064 8.16683 16.4168 8.57724 16.4168 9.0835C16.4168 9.58976 16.0064 10.0002 15.5002 10.0002H12.7502C12.2439 10.0002 11.8335 9.58976 11.8335 9.0835ZM11.8335 12.7502C11.8335 12.2439 12.2439 11.8335 12.7502 11.8335H14.5835C15.0898 11.8335 15.5002 12.2439 15.5002 12.7502C15.5002 13.2564 15.0898 13.6668 14.5835 13.6668H12.7502C12.2439 13.6668 11.8335 13.2564 11.8335 12.7502Z" fill="#002B48"/>
</svg>
