<svg width="18" height="18" viewBox="0 0 18 18" fill="none" xmlns="http://www.w3.org/2000/svg">
<path fill-rule="evenodd" clip-rule="evenodd" d="M7.33342 2.33335C4.57199 2.33335 2.33341 4.57193 2.33341 7.33335C2.33341 10.0948 4.57199 12.3334 7.33342 12.3334C10.0948 12.3334 12.3334 10.0948 12.3334 7.33335C12.3334 4.57193 10.0948 2.33335 7.33342 2.33335ZM0.666748 7.33335C0.666748 3.65146 3.65152 0.666687 7.33342 0.666687C11.0153 0.666687 14.0001 3.65146 14.0001 7.33335C14.0001 8.87395 13.4775 10.2925 12.6 11.4214L17.0893 15.9108C17.4148 16.2362 17.4148 16.7638 17.0893 17.0893C16.7639 17.4147 16.2363 17.4147 15.9108 17.0893L11.4215 12.5999C10.2925 13.4775 8.87401 14 7.33342 14C3.65152 14 0.666748 11.0153 0.666748 7.33335Z" fill="#002B48"/>
</svg>
