<svg width="24" height="24" viewBox="0 0 24 24" fill="none" xmlns="http://www.w3.org/2000/svg">
<path fill-rule="evenodd" clip-rule="evenodd" d="M9.3 4.8C7.80883 4.8 6.6 6.00883 6.6 7.5C6.6 8.99117 7.80883 10.2 9.3 10.2C10.1024 10.2 10.823 9.85001 11.3175 9.29437C11.3222 9.28899 11.3269 9.28365 11.3317 9.27835C11.7478 8.80334 12 8.18112 12 7.5C12 6.81886 11.7478 6.19663 11.3316 5.72162C11.3269 5.71634 11.3222 5.71102 11.3175 5.70566C10.823 5.15 10.1024 4.8 9.3 4.8ZM12.0001 3.89974C11.248 3.33478 10.3131 3 9.3 3C6.81472 3 4.8 5.01472 4.8 7.5C4.8 9.98528 6.81472 12 9.3 12C10.3131 12 11.248 11.6652 12.0001 11.1003C12.7518 11.6647 13.6871 12 14.7 12C17.1853 12 19.2 9.98528 19.2 7.5C19.2 5.01472 17.1853 3 14.7 3C13.6871 3 12.7518 3.33532 12.0001 3.89974ZM13.2004 5.25421C13.5818 5.91515 13.8 6.68209 13.8 7.5C13.8 8.31791 13.5818 9.08485 13.2004 9.74579C13.6296 10.0331 14.145 10.2 14.7 10.2C16.1912 10.2 17.4 8.99117 17.4 7.5C17.4 6.00883 16.1912 4.8 14.7 4.8C14.145 4.8 13.6296 4.9669 13.2004 5.25421ZM9.3 14.7C6.81472 14.7 4.8 16.7147 4.8 19.2H13.8C13.8 16.7147 11.7853 14.7 9.3 14.7ZM15.6 19.2H19.2C19.2 16.7147 17.1853 14.7 14.7 14.7C14.3912 14.7 14.0899 14.731 13.7991 14.79C14.9131 15.9264 15.6 17.483 15.6 19.2ZM12.0003 13.5064C11.1819 13.1176 10.2663 12.9 9.3 12.9C5.82061 12.9 3 15.7206 3 19.2V20.1C3 20.5971 3.40294 21 3.9 21H20.1C20.5971 21 21 20.5971 21 20.1V19.2C21 15.7206 18.1794 12.9 14.7 12.9C13.7352 12.9 12.8193 13.1175 12.0003 13.5064Z" fill="#002B48"/>
</svg>
