<svg width="18" height="19" viewBox="0 0 18 19" fill="none" xmlns="http://www.w3.org/2000/svg">
<path fill-rule="evenodd" clip-rule="evenodd" d="M9 0C9.55229 0 10 0.447715 10 1V6.58579L11.2929 5.29289C11.6834 4.90237 12.3166 4.90237 12.7071 5.29289C13.0976 5.68342 13.0976 6.31658 12.7071 6.70711L9.70711 9.70711C9.31658 10.0976 8.68342 10.0976 8.29289 9.70711L5.29289 6.70711C4.90237 6.31658 4.90237 5.68342 5.29289 5.29289C5.68342 4.90237 6.31658 4.90237 6.70711 5.29289L8 6.58579V1C8 0.447715 8.44772 0 9 0ZM3 3C2.44772 3 2 3.44772 2 4V10H3.58579C4.11622 10 4.62493 10.2107 5 10.5858L7.41421 13H10.5858L13 10.5858C13.3751 10.2107 13.8838 10 14.4142 10H16V4C16 3.44772 15.5523 3 15 3H13C12.4477 3 12 2.55228 12 2C12 1.44772 12.4477 1 13 1H15C16.6569 1 18 2.34315 18 4V16C18 17.6569 16.6569 19 15 19H3C1.34315 19 0 17.6569 0 16V4C0 2.34315 1.34315 1 3 1H5C5.55228 1 6 1.44772 6 2C6 2.55228 5.55228 3 5 3H3ZM2 12V16C2 16.5523 2.44772 17 3 17H15C15.5523 17 16 16.5523 16 16V12H14.4142L12 14.4142C11.6249 14.7893 11.1162 15 10.5858 15H7.41421C6.88378 15 6.37507 14.7893 6 14.4142L3.58579 12H2Z" fill="#002B48"/>
</svg>
