<svg width="24" height="24" viewBox="0 0 24 24" fill="none" xmlns="http://www.w3.org/2000/svg">
<path fill-rule="evenodd" clip-rule="evenodd" d="M11.7065 3.55592C11.8911 3.72129 11.9966 3.95746 11.9966 4.20534V12.0035H19.7948C20.0427 12.0035 20.2789 12.109 20.4442 12.2937C20.6096 12.4784 20.6885 12.7247 20.6613 12.9711C20.1794 17.3309 16.4845 20.7213 11.9966 20.7213C7.18192 20.7213 3.27881 16.8182 3.27881 12.0035C3.27881 7.51561 6.66928 3.82079 11.0291 3.33884C11.2755 3.3116 11.5218 3.39054 11.7065 3.55592ZM10.2531 5.24878C7.24531 6.02273 5.02238 8.75401 5.02238 12.0035C5.02238 15.8553 8.14486 18.9778 11.9966 18.9778C15.2461 18.9778 17.9774 16.7548 18.7514 13.7471H11.1249C10.6434 13.7471 10.2531 13.3568 10.2531 12.8753V5.24878ZM14.1086 3.89229C14.3397 3.72889 14.6357 3.68781 14.9025 3.78212C17.3801 4.65784 19.3424 6.62002 20.2181 9.09762C20.3124 9.36445 20.2714 9.66045 20.108 9.89151C19.9446 10.1226 19.6792 10.2599 19.3962 10.2599H14.612C14.1305 10.2599 13.7402 9.86963 13.7402 9.38816V4.60407C13.7402 4.32107 13.8776 4.05569 14.1086 3.89229ZM15.4838 5.96227V8.51638H18.0379C17.4254 7.4578 16.5424 6.57479 15.4838 5.96227Z" fill="#002B48"/>
</svg>
