<svg width="24" height="24" viewBox="0 0 24 24" fill="none" xmlns="http://www.w3.org/2000/svg">
<path fill-rule="evenodd" clip-rule="evenodd" d="M21.333 16.5529C21.333 16.9301 21.0273 17.2358 20.6501 17.2358L15.1867 17.2358C14.8095 17.2358 14.5037 16.9301 14.5037 16.5529C14.5037 16.1757 14.8095 15.87 15.1867 15.87L20.6501 15.87C21.0273 15.87 21.333 16.1757 21.333 16.5529Z" fill="#002B48"/>
<path fill-rule="evenodd" clip-rule="evenodd" d="M17.9458 19.3122C17.6791 19.5789 17.2467 19.5789 16.98 19.3122L14.7037 17.0357C14.437 16.769 14.4371 16.3366 14.7037 16.07L16.9802 13.7935C17.2469 13.5268 17.6793 13.5268 17.946 13.7935C18.2127 14.0602 18.2127 14.4926 17.946 14.7593L16.1524 16.5529L17.9458 18.3464C18.2125 18.6131 18.2125 19.0455 17.9458 19.3122Z" fill="#002B48"/>
<path fill-rule="evenodd" clip-rule="evenodd" d="M2.6665 5.62605C2.6665 4.49454 3.58378 3.57727 4.71528 3.57727H19.2844C20.4159 3.57727 21.3332 4.49455 21.3332 5.62605V12.9106C21.3332 13.2878 21.0274 13.5935 20.6502 13.5935C20.2731 13.5935 19.9673 13.2878 19.9673 12.9106V5.62605C19.9673 5.24888 19.6616 4.94312 19.2844 4.94312H4.71528C4.33812 4.94312 4.03236 5.24888 4.03236 5.62605V18.374C4.03236 18.7512 4.33811 19.0569 4.71528 19.0569H14.0352C14.4124 19.0569 14.7182 19.3627 14.7182 19.7399C14.7182 20.117 14.4124 20.4228 14.0352 20.4228H4.71528C3.58378 20.4228 2.6665 19.5056 2.6665 18.374V5.62605Z" fill="#002B48"/>
<path d="M10.8958 11.2179V9.69781C11.4476 9.81915 11.9871 10.0502 12.4285 10.4138L12.4303 10.4116C12.4633 10.4352 12.5033 10.4514 12.5488 10.4514C12.6087 10.4514 12.6601 10.4254 12.6956 10.387L12.6981 10.3875L13.4115 9.48415L13.4098 9.4834C13.4391 9.45303 13.4585 9.41453 13.4585 9.37123C13.4585 9.32011 13.4329 9.2753 13.3937 9.24358C12.7321 8.69462 11.8873 8.36503 10.8958 8.26595V7.39297H10.8956C10.8956 7.29719 10.8092 7.2196 10.7026 7.2196H9.93634C9.82972 7.2196 9.74335 7.29719 9.74335 7.39297V8.24384C8.08797 8.39796 7.10712 9.34537 7.10712 10.4579C7.10712 11.9559 8.48047 12.3855 9.74335 12.6609V14.3681C8.9324 14.2376 8.26589 13.86 7.81246 13.4374C7.80928 13.4342 7.80593 13.4315 7.80242 13.4286L7.79371 13.421L7.79237 13.4226C7.75881 13.3968 7.71624 13.3823 7.67203 13.3816C7.63759 13.3819 7.60388 13.3905 7.57447 13.4066C7.54506 13.4227 7.52105 13.4456 7.50498 13.473L7.50264 13.4727L6.8122 14.3935L6.81304 14.395C6.78201 14.4259 6.76462 14.4659 6.76416 14.5075C6.76416 14.5626 6.79462 14.6096 6.83915 14.6413L6.83731 14.6437C7.51168 15.2495 8.45587 15.69 9.74335 15.7893V16.6072C9.74335 16.703 9.82972 16.7806 9.93634 16.7806H10.7026C10.8092 16.7806 10.8956 16.7028 10.8956 16.6072H10.8958V15.7891C12.6983 15.6237 13.5934 14.6768 13.5934 13.4539C13.5934 11.9451 12.171 11.5042 10.8958 11.2179ZM9.74319 10.9644C9.24055 10.8214 8.89708 10.656 8.89708 10.3365C8.89708 9.96214 9.20372 9.69781 9.74319 9.63165V10.9644ZM10.8958 14.3902V12.9143C11.4354 13.0684 11.8155 13.2449 11.8155 13.6082C11.8155 13.9608 11.5211 14.28 10.8958 14.3902Z" fill="#002B48"/>
</svg>
