<svg width="24" height="24" viewBox="0 0 24 24" fill="none" xmlns="http://www.w3.org/2000/svg">
<path fill-rule="evenodd" clip-rule="evenodd" d="M14.75 17C14.75 16.5858 15.0858 16.25 15.5 16.25C15.9142 16.25 21.5 16.25 21.5 16.25C21.9142 16.25 22.25 16.5858 22.25 17C22.25 17.4142 21.9142 17.75 21.5 17.75H15.5C15.0858 17.75 14.75 17.4142 14.75 17Z" fill="#002B48"/>
<path fill-rule="evenodd" clip-rule="evenodd" d="M18.8667 14.2C19.1334 13.9333 19.5658 13.9333 19.8325 14.2L22.1088 16.4765C22.3755 16.7432 22.3754 17.1756 22.1088 17.4423L19.8323 19.7187C19.5656 19.9854 19.1332 19.9854 18.8665 19.7187C18.5998 19.452 18.5998 19.0196 18.8665 18.7529L20.6601 16.9593L18.8667 15.1658C18.6 14.8991 18.6 14.4667 18.8667 14.2Z" fill="#002B48"/>
<path fill-rule="evenodd" clip-rule="evenodd" d="M2.6665 5.62599C2.6665 4.49448 3.58378 3.57721 4.71528 3.57721H19.2844C20.4159 3.57721 21.3332 4.49449 21.3332 5.62599V12.9105C21.3332 13.2877 21.0274 13.5935 20.6502 13.5935C20.2731 13.5935 19.9673 13.2877 19.9673 12.9105V5.62599C19.9673 5.24881 19.6616 4.94306 19.2844 4.94306H4.71528C4.33812 4.94306 4.03236 5.24882 4.03236 5.62599V18.374C4.03236 18.7511 4.33811 19.0569 4.71528 19.0569H14.0352C14.4124 19.0569 14.7182 19.3626 14.7182 19.7398C14.7182 20.117 14.4124 20.4227 14.0352 20.4227H4.71528C3.58378 20.4227 2.6665 19.5055 2.6665 18.374V5.62599Z" fill="#002B48"/>
<path d="M10.8958 11.2178V9.69769C11.4476 9.81903 11.9871 10.0501 12.4285 10.4137L12.4303 10.4114C12.4633 10.435 12.5033 10.4513 12.5488 10.4513C12.6087 10.4513 12.6601 10.4253 12.6956 10.3869L12.6981 10.3874L13.4115 9.48403L13.4098 9.48328C13.4391 9.4529 13.4585 9.41441 13.4585 9.37111C13.4585 9.31999 13.4329 9.27518 13.3937 9.24345C12.7321 8.6945 11.8873 8.36491 10.8958 8.26583V7.39285C10.8958 7.29707 10.8092 7.21948 10.7026 7.21948H9.93634C9.82972 7.21948 9.74335 7.29707 9.74335 7.39285V8.24372C8.08797 8.39784 7.10712 9.34525 7.10712 10.4577C7.10712 11.9558 8.48047 12.3853 9.74335 12.6608V14.368C8.9324 14.2375 8.26589 13.8599 7.81246 13.4372C7.80928 13.4341 7.80593 13.4314 7.80242 13.4285L7.79371 13.4209L7.79237 13.4225C7.75881 13.3967 7.71624 13.3821 7.67203 13.3815C7.63759 13.3817 7.60388 13.3904 7.57447 13.4065C7.54506 13.4226 7.52105 13.4455 7.50498 13.4729L7.50264 13.4726L6.8122 14.3934L6.81304 14.3949C6.78201 14.4257 6.76462 14.4658 6.76416 14.5073C6.76416 14.5625 6.79462 14.6094 6.83915 14.6412L6.83731 14.6436C7.51168 15.2494 8.45587 15.6899 9.74335 15.7891V16.6071C9.74335 16.7029 9.82972 16.7805 9.93634 16.7805H10.7026C10.8092 16.7805 10.8956 16.7027 10.8956 16.6071L10.8958 15.789C12.6983 15.6236 13.5934 14.6766 13.5934 13.4538C13.5934 11.9449 12.171 11.5041 10.8958 11.2178ZM9.74319 10.9643C9.24055 10.8213 8.89708 10.6559 8.89708 10.3364C8.89708 9.96202 9.20372 9.69769 9.74319 9.63153V10.9643ZM10.8958 14.3901V12.9141C11.4354 13.0683 11.8155 13.2448 11.8155 13.6081C11.8155 13.9606 11.5211 14.2799 10.8958 14.3901Z" fill="#002B48"/>
</svg>
