<svg width="18" height="16" viewBox="0 0 18 16" fill="none" xmlns="http://www.w3.org/2000/svg">
<path fill-rule="evenodd" clip-rule="evenodd" d="M0.666748 1.33333C0.666748 0.873096 1.03984 0.5 1.50008 0.5H12.3334C12.7937 0.5 13.1667 0.873096 13.1667 1.33333C13.1667 1.79357 12.7937 2.16667 12.3334 2.16667H1.50008C1.03984 2.16667 0.666748 1.79357 0.666748 1.33333ZM0.666748 4.66667C0.666748 4.20643 1.03984 3.83333 1.50008 3.83333H9.00008C9.46032 3.83333 9.83342 4.20643 9.83342 4.66667C9.83342 5.1269 9.46032 5.5 9.00008 5.5H1.50008C1.03984 5.5 0.666748 5.1269 0.666748 4.66667ZM12.3334 6.67851L10.4227 8.58926C10.0972 8.91469 9.5696 8.91469 9.24416 8.58926C8.91872 8.26382 8.91872 7.73618 9.24416 7.41074L12.5775 4.07741C12.9029 3.75197 13.4306 3.75197 13.756 4.07741L17.0893 7.41074C17.4148 7.73618 17.4148 8.26382 17.0893 8.58926C16.7639 8.91469 16.2363 8.91469 15.9108 8.58926L14.0001 6.67851V14.6667C14.0001 15.1269 13.627 15.5 13.1667 15.5C12.7065 15.5 12.3334 15.1269 12.3334 14.6667V6.67851ZM0.666748 8C0.666748 7.53976 1.03984 7.16667 1.50008 7.16667H6.50008C6.96032 7.16667 7.33342 7.53976 7.33342 8C7.33342 8.46024 6.96032 8.83333 6.50008 8.83333H1.50008C1.03984 8.83333 0.666748 8.46024 0.666748 8Z" fill="#002B48"/>
</svg>
