<svg width="16" height="20" viewBox="0 0 16 20" fill="none" xmlns="http://www.w3.org/2000/svg">
<path fill-rule="evenodd" clip-rule="evenodd" d="M7.99984 2.66683C6.48105 2.66683 5.24984 3.89805 5.24984 5.41683C5.24984 6.93561 6.48105 8.16683 7.99984 8.16683C9.51862 8.16683 10.7498 6.93561 10.7498 5.41683C10.7498 3.89805 9.51862 2.66683 7.99984 2.66683ZM3.4165 5.41683C3.4165 2.88552 5.46853 0.833496 7.99984 0.833496C10.5311 0.833496 12.5832 2.88552 12.5832 5.41683C12.5832 7.94813 10.5311 10.0002 7.99984 10.0002C5.46853 10.0002 3.4165 7.94813 3.4165 5.41683ZM2.57588 17.3335H13.4238C12.9874 14.7323 10.7251 12.7502 7.99984 12.7502C5.27459 12.7502 3.01229 14.7323 2.57588 17.3335ZM0.666504 18.2502C0.666504 14.2001 3.94975 10.9168 7.99984 10.9168C12.0499 10.9168 15.3332 14.2001 15.3332 18.2502C15.3332 18.7564 14.9228 19.1668 14.4165 19.1668H1.58317C1.07691 19.1668 0.666504 18.7564 0.666504 18.2502Z" fill="#002B48"/>
</svg>
