<svg width="26" height="22" viewBox="0 0 26 22" fill="none" xmlns="http://www.w3.org/2000/svg">
<path fill-rule="evenodd" clip-rule="evenodd" d="M5.00016 2.83333C3.7115 2.83333 2.66683 3.878 2.66683 5.16667V16.8333C2.66683 18.122 3.7115 19.1667 5.00016 19.1667H11.3333C12.622 19.1667 13.6667 18.122 13.6667 16.8333V15.6667C13.6667 15.0223 14.189 14.5 14.8333 14.5C15.4777 14.5 16 15.0223 16 15.6667V16.8333C16 19.4107 13.9107 21.5 11.3333 21.5H5.00016C2.42283 21.5 0.333496 19.4107 0.333496 16.8333V5.16667C0.333496 2.58934 2.42283 0.5 5.00016 0.5H11.3333C13.9107 0.5 16 2.58934 16 5.16667V6.33333C16 6.97766 15.4777 7.5 14.8333 7.5C14.189 7.5 13.6667 6.97766 13.6667 6.33333V5.16667C13.6667 3.878 12.622 2.83333 11.3333 2.83333H5.00016ZM18.7585 5.50838C19.2142 5.05276 19.9528 5.05276 20.4085 5.50838L25.0751 10.175C25.5307 10.6307 25.5307 11.3693 25.0751 11.825L20.4085 16.4916C19.9528 16.9472 19.2142 16.9472 18.7585 16.4916C18.3029 16.036 18.3029 15.2973 18.7585 14.8417L21.4336 12.1667L7.91683 12.1667C7.2725 12.1667 6.75016 11.6443 6.75016 11C6.75016 10.3557 7.2725 9.83333 7.91683 9.83333L21.4336 9.83333L18.7585 7.15829C18.3029 6.70268 18.3029 5.96399 18.7585 5.50838Z" fill="#002B48"/>
</svg>
